<?xml version="1.0" encoding="UTF-8" standalone="no"?>
<!-- Created with Inkscape (http://www.inkscape.org/) -->

<svg
   xmlns:dc="http://purl.org/dc/elements/1.1/"
   xmlns:cc="http://creativecommons.org/ns#"
   xmlns:rdf="http://www.w3.org/1999/02/22-rdf-syntax-ns#"
   xmlns:svg="http://www.w3.org/2000/svg"
   xmlns="http://www.w3.org/2000/svg"
   xmlns:sodipodi="http://sodipodi.sourceforge.net/DTD/sodipodi-0.dtd"
   xmlns:inkscape="http://www.inkscape.org/namespaces/inkscape"
   version="1.1"
   id="svg2"
   xml:space="preserve"
   width="276"
   height="109.33333"
   viewBox="0 0 276 109.33333"
   sodipodi:docname="assign2.svg"
   inkscape:version="0.92.2 (5c3e80d, 2017-08-06)"><metadata
     id="metadata8"><rdf:RDF><cc:Work
         rdf:about=""><dc:format>image/svg+xml</dc:format><dc:type
           rdf:resource="http://purl.org/dc/dcmitype/StillImage" /><dc:title></dc:title></cc:Work></rdf:RDF></metadata><defs
     id="defs6" /><sodipodi:namedview
     pagecolor="#ffffff"
     bordercolor="#666666"
     borderopacity="1"
     objecttolerance="10"
     gridtolerance="10"
     guidetolerance="10"
     inkscape:pageopacity="0"
     inkscape:pageshadow="2"
     inkscape:window-width="640"
     inkscape:window-height="480"
     id="namedview4"
     showgrid="false"
     inkscape:zoom="1.2862319"
     inkscape:cx="138"
     inkscape:cy="54.666664"
     inkscape:window-x="0"
     inkscape:window-y="27"
     inkscape:window-maximized="0"
     inkscape:current-layer="g10" /><g
     id="g10"
     inkscape:groupmode="layer"
     inkscape:label="ink_ext_XXXXXX"
     transform="matrix(1.3333333,0,0,-1.3333333,0,109.33333)"><g
       id="g12"
       transform="scale(0.1)"><path
         d="m 108,415 v 0 C 73.207,415 45,386.793 45,352 V 73 C 45,38.207 73.207,10 108,10 h 459 c 34.793,0 63,28.207 63,63 v 279 c 0,34.793 -28.207,63 -63,63 z"
         style="fill:none;stroke:#000000;stroke-width:4.5;stroke-linecap:butt;stroke-linejoin:miter;stroke-miterlimit:10;stroke-dasharray:none;stroke-opacity:1"
         id="path14"
         inkscape:connector-curvature="0" /><path
         d="m 1503,415 v 0 c -34.79,0 -63,-28.207 -63,-63 V 73 c 0,-34.793 28.21,-63 63,-63 h 459 c 34.79,0 63,28.207 63,63 v 279 c 0,34.793 -28.21,63 -63,63 z"
         style="fill:none;stroke:#000000;stroke-width:4.5;stroke-linecap:butt;stroke-linejoin:miter;stroke-miterlimit:10;stroke-dasharray:none;stroke-opacity:1"
         id="path16"
         inkscape:connector-curvature="0" /><path
         d="M 1530,325 1710,100"
         style="fill:none;stroke:#000000;stroke-width:9;stroke-linecap:butt;stroke-linejoin:miter;stroke-miterlimit:10;stroke-dasharray:none;stroke-opacity:1"
         id="path18"
         inkscape:connector-curvature="0" /><path
         d="M 1710,325 1530,100"
         style="fill:none;stroke:#000000;stroke-width:9;stroke-linecap:butt;stroke-linejoin:miter;stroke-miterlimit:10;stroke-dasharray:none;stroke-opacity:1"
         id="path20"
         inkscape:connector-curvature="0" /><g
         id="g22"
         transform="scale(10)"><text
           transform="matrix(1,0,0,-1,18,50.5)"
           style="font-variant:normal;font-weight:normal;font-size:10.80000019px;font-family:Helvetica;-inkscape-font-specification:Helvetica;writing-mode:lr-tb;fill:#000000;fill-opacity:1;fill-rule:nonzero;stroke:none"
           id="text26"><tspan
             x="0 3.0023999 6.5988002 12.6036"
             y="0"
             sodipodi:role="line"
             id="tspan24">fred</tspan></text>
<text
           transform="matrix(1,0,0,-1,22.5,14.5)"
           style="font-variant:normal;font-weight:normal;font-size:16.20000076px;font-family:Helvetica;-inkscape-font-specification:Helvetica;writing-mode:lr-tb;fill:#000000;fill-opacity:1;fill-rule:nonzero;stroke:none"
           id="text30"><tspan
             x="0"
             y="0"
             id="tspan28">5</tspan></text>
<text
           transform="matrix(1,0,0,-1,0,73)"
           style="font-variant:normal;font-weight:normal;font-size:10.80000019px;font-family:Courier;-inkscape-font-specification:Courier;writing-mode:lr-tb;fill:#000000;fill-opacity:1;fill-rule:nonzero;stroke:none"
           id="text34"><tspan
             x="0 6.48 12.96 19.440001 25.92 32.400002 38.880001 45.360001 51.84 58.32 64.800003 71.279999 77.760002 148.5 154.98 161.46001 167.94 174.42 180.89999 187.38 193.86 200.34"
             y="0"
             sodipodi:role="line"
             id="tspan32">int fred = 5;fred = 7;</tspan></text>
<text
           transform="matrix(1,0,0,-1,157.5,50.5)"
           style="font-variant:normal;font-weight:normal;font-size:10.80000019px;font-family:Helvetica;-inkscape-font-specification:Helvetica;writing-mode:lr-tb;fill:#000000;fill-opacity:1;fill-rule:nonzero;stroke:none"
           id="text38"><tspan
             x="0 3.0023999 6.5988002 12.6036"
             y="0"
             sodipodi:role="line"
             id="tspan36">fred</tspan></text>
<text
           transform="matrix(1,0,0,-1,157.5,14.5)"
           style="font-variant:normal;font-weight:normal;font-size:16.20000076px;font-family:Helvetica;-inkscape-font-specification:Helvetica;writing-mode:lr-tb;fill:#000000;fill-opacity:1;fill-rule:nonzero;stroke:none"
           id="text42"><tspan
             x="0 22.500002"
             y="0"
             sodipodi:role="line"
             id="tspan40">57</tspan></text>
</g></g></g></svg>