<?xml version="1.0" encoding="UTF-8" standalone="no"?>
<!-- Created with Inkscape (http://www.inkscape.org/) -->

<svg
   xmlns:dc="http://purl.org/dc/elements/1.1/"
   xmlns:cc="http://creativecommons.org/ns#"
   xmlns:rdf="http://www.w3.org/1999/02/22-rdf-syntax-ns#"
   xmlns:svg="http://www.w3.org/2000/svg"
   xmlns="http://www.w3.org/2000/svg"
   xmlns:sodipodi="http://sodipodi.sourceforge.net/DTD/sodipodi-0.dtd"
   xmlns:inkscape="http://www.inkscape.org/namespaces/inkscape"
   version="1.1"
   id="svg2"
   xml:space="preserve"
   width="549.2168"
   height="155.3528"
   viewBox="0 0 549.2168 155.3528"
   sodipodi:docname="compile.svg"
   inkscape:version="0.92.2 (5c3e80d, 2017-08-06)"><metadata
     id="metadata8"><rdf:RDF><cc:Work
         rdf:about=""><dc:format>image/svg+xml</dc:format><dc:type
           rdf:resource="http://purl.org/dc/dcmitype/StillImage" /><dc:title></dc:title></cc:Work></rdf:RDF></metadata><defs
     id="defs6"><clipPath
       clipPathUnits="userSpaceOnUse"
       id="clipPath78"><path
         d="M 0,1140 H 4170 V 0 H 0 Z m 641.801,-312 72,-18 -72,-18 H 739 v 36 z"
         id="path76"
         inkscape:connector-curvature="0" /></clipPath><clipPath
       clipPathUnits="userSpaceOnUse"
       id="clipPath90"><path
         d="M 0,1140 H 4170 V 0 H 0 Z m 2171.8,-312 72,-18 -72,-18 h 97.2 v 36 z"
         id="path88"
         inkscape:connector-curvature="0" /></clipPath><clipPath
       clipPathUnits="userSpaceOnUse"
       id="clipPath102"><path
         d="M 0,1140 H 4170 V 0 H 0 Z m 2981.8,-312 72,-18 -72,-18 h 97.2 v 36 z"
         id="path100"
         inkscape:connector-curvature="0" /></clipPath><clipPath
       clipPathUnits="userSpaceOnUse"
       id="clipPath114"><path
         d="M 0,1140 H 4170 V 0 H 0 Z m 1451.8,-312 72,-18 -72,-18 h 97.2 v 36 z"
         id="path112"
         inkscape:connector-curvature="0" /></clipPath></defs><sodipodi:namedview
     pagecolor="#ffffff"
     bordercolor="#666666"
     borderopacity="1"
     objecttolerance="10"
     gridtolerance="10"
     guidetolerance="10"
     inkscape:pageopacity="0"
     inkscape:pageshadow="2"
     inkscape:window-width="1366"
     inkscape:window-height="704"
     id="namedview4"
     showgrid="false"
     inkscape:zoom="1.8059202"
     inkscape:cx="168.31448"
     inkscape:cy="96.750402"
     inkscape:window-x="0"
     inkscape:window-y="27"
     inkscape:window-maximized="1"
     inkscape:current-layer="g10"
     fit-margin-top="1"
     fit-margin-left="1"
     fit-margin-right="1"
     fit-margin-bottom="1" /><g
     id="g10"
     inkscape:groupmode="layer"
     inkscape:label="ink_ext_XXXXXX"
     transform="matrix(1.3333333,0,0,-1.3333333,-0.03333332,151.3)"><path
       inkscape:connector-curvature="0"
       id="path14"
       style="fill:none;stroke:#000000;stroke-width:0.44999999;stroke-linecap:butt;stroke-linejoin:miter;stroke-miterlimit:10;stroke-dasharray:none;stroke-opacity:1"
       d="m 154,49.5 h 49.5 v 63 H 154 Z" /><g
       id="g16"><text
         id="text22"
         style="font-variant:normal;font-weight:normal;font-size:10.80000019px;font-family:Helvetica;-inkscape-font-specification:Helvetica;writing-mode:lr-tb;fill:#000000;fill-opacity:1;fill-rule:nonzero;stroke:none"
         transform="matrix(1,0,0,-1,163,94.5)"><tspan
           id="tspan18"
           sodipodi:role="line"
           y="0"
           x="0 6.0047998 12.0096 14.4072 20.412001 25.812">object</tspan><tspan
           id="tspan20"
           sodipodi:role="line"
           y="13.5"
           x="0 5.4000001 11.4048 17.409599">code</tspan></text>
</g><path
       inkscape:connector-curvature="0"
       id="path24"
       style="fill:none;stroke:#000000;stroke-width:0.44999999;stroke-linecap:butt;stroke-linejoin:miter;stroke-miterlimit:10;stroke-dasharray:none;stroke-opacity:1"
       d="M 284.5,81.5398 C 284.5,71.3008 270.907,63 254.14,63 c -16.767,0 -30.36,8.3008 -30.36,18.5398 0,10.2395 13.593,18.5402 30.36,18.5402 16.767,0 30.36,-8.3007 30.36,-18.5402 z" /><g
       id="g26"
       transform="translate(3)"><text
         id="text30"
         style="font-variant:normal;font-weight:normal;font-size:10.80000019px;font-family:Helvetica;-inkscape-font-specification:Helvetica;writing-mode:lr-tb;fill:#000000;fill-opacity:1;fill-rule:nonzero;stroke:none"
         transform="matrix(1,0,0,-1,230.5,76.5)"><tspan
           id="tspan28"
           sodipodi:role="line"
           y="0"
           x="0 6.0047998 11.4048 17.409599 22.809601 28.8144 31.816799 37.821602">executor</tspan></text>
</g><path
       inkscape:connector-curvature="0"
       id="path32"
       style="fill:none;stroke:#000000;stroke-width:0.44999999;stroke-linecap:butt;stroke-linejoin:miter;stroke-miterlimit:10;stroke-dasharray:none;stroke-opacity:1"
       d="m 361,81 c 0,-9.941 -8.059,-18 -18,-18 -9.941,0 -18,8.059 -18,18 0,9.941 8.059,18 18,18 9.941,0 18,-8.059 18,-18 z" /><path
       inkscape:connector-curvature="0"
       id="path34"
       style="fill:none;stroke:#000000;stroke-width:0.44999999;stroke-linecap:butt;stroke-linejoin:miter;stroke-miterlimit:10;stroke-dasharray:none;stroke-opacity:1"
       d="m 339.46,87.7801 c 0,-1.7891 -1.451,-3.2403 -3.24,-3.2403 -1.789,0 -3.24,1.4512 -3.24,3.2403 0,1.789 1.451,3.2398 3.24,3.2398 1.789,0 3.24,-1.4508 3.24,-3.2398 z" /><path
       inkscape:connector-curvature="0"
       id="path36"
       style="fill:none;stroke:#000000;stroke-width:0.44999999;stroke-linecap:butt;stroke-linejoin:miter;stroke-miterlimit:10;stroke-dasharray:none;stroke-opacity:1"
       d="m 352.96,87.7801 c 0,-1.7891 -1.451,-3.2403 -3.24,-3.2403 -1.789,0 -3.24,1.4512 -3.24,3.2403 0,1.789 1.451,3.2398 3.24,3.2398 1.789,0 3.24,-1.4508 3.24,-3.2398 z" /><path
       inkscape:connector-curvature="0"
       id="path38"
       style="fill:none;stroke:#000000;stroke-width:0.44999999;stroke-linecap:butt;stroke-linejoin:miter;stroke-miterlimit:10;stroke-dasharray:none;stroke-opacity:1"
       d="m 313.3,108 v 0 c -3.479,0 -6.3,-2.821 -6.3,-6.3 V 60.3 c 0,-3.4793 2.821,-6.3 6.3,-6.3 h 59.4 c 3.479,0 6.3,2.8207 6.3,6.3 v 41.4 c 0,3.479 -2.821,6.3 -6.3,6.3 z" /><path
       inkscape:connector-curvature="0"
       id="path40"
       style="fill:none;stroke:#000000;stroke-width:0.44999999;stroke-linecap:butt;stroke-linejoin:miter;stroke-miterlimit:10;stroke-dasharray:none;stroke-opacity:1"
       d="m 334,76.5 h 0.06 l 0.24,-0.1199 0.54,-0.3 0.9,-0.3602 1.08,-0.4801 1.08,-0.4199 1.08,-0.4199 0.96,-0.3602 0.9,-0.2398 0.78,-0.1801 0.66,-0.1199 h 0.72 0.72 l 0.66,0.1199 0.78,0.1801 0.9,0.2398 0.96,0.3602 1.08,0.4199 1.08,0.4199 1.08,0.4801 0.9,0.3602 0.54,0.3 0.24,0.1199 H 352" /><g
       id="g42"><text
         id="text66"
         style="font-variant:normal;font-weight:normal;font-size:10.80000019px;font-family:Helvetica;-inkscape-font-specification:Helvetica;writing-mode:lr-tb;fill:#000000;fill-opacity:1;fill-rule:nonzero;stroke:none"
         transform="matrix(1,0,0,-1,1,27)"><tspan
           id="tspan44"
           sodipodi:role="line"
           y="0"
           x="0 6.5988002 12.6036 18.6084 21.6108 27.010799 33.015598 42.012001 48.0168 50.414398 52.812 58.816799">The compiler</tspan><tspan
           id="tspan46"
           sodipodi:role="line"
           y="13.5"
           x="0 3.5964 9.6012001 15.606 21.6108 27.010799 30.013201 33.015598 39.020401">reads the</tspan><tspan
           id="tspan48"
           sodipodi:role="line"
           y="27"
           x="0 5.4000001 11.4048 17.409599 21.006001 26.406 32.410801 35.4132 40.813202 46.818001 52.8228 58.827599 61.830002 64.832397">source code...</tspan><tspan
           id="tspan50"
           sodipodi:role="line"
           y="4.5"
           x="99 102.0024 105.0048 108.0072 111.0096 117.0144 123.0192 129.024 132.0264 138.0312 144.036 150.0408 156.04559 159.642 165.6468 168.6492 174.65401">... and generates</tspan><tspan
           id="tspan52"
           sodipodi:role="line"
           y="18"
           x="99 105.0048 111.0096 113.4072 119.412 124.812 127.8144 130.8168 136.2168 142.2216 148.22639 154.2312">object code.</tspan><tspan
           id="tspan54"
           sodipodi:role="line"
           y="0"
           x="211.5 218.7036 224.7084 230.7132 233.71561 239.7204 245.12041 251.1252 256.52521 262.53 265.53241 271.5372 274.53961 277.54199 283.54681">You execute the</tspan><tspan
           id="tspan56"
           sodipodi:role="line"
           y="13.5"
           x="211.5 217.50481 221.1012 227.106 233.11079 236.7072 242.71201 251.7084 254.7108 258.30719 264.31201 270.3168 276.32159 279.32401 287.12161 293.1264">program (one way</tspan><tspan
           id="tspan58"
           sodipodi:role="line"
           y="27"
           x="211.5 217.50481 221.1012 224.10361 230.1084 236.1132 242.118 245.12041 251.1252 257.13 260.72641 264.32281 267.3252 270.32761">or another)...</tspan><tspan
           id="tspan60"
           sodipodi:role="line"
           y="0"
           x="333 336.00241 339.00479 342.0072 345.00961 351.0144 357.0192 363.02399 366.0264 369.02881 375.0336 381.03839 384.0408 387.63721 393.642 399.04199 405.04681 407.4444">... and the result</tspan><tspan
           id="tspan62"
           sodipodi:role="line"
           y="13.5"
           x="333 339.00479 345.00961 351.0144 357.0192 363.02399 366.62039 372.02039 375.0228 381.02759">appears on</tspan><tspan
           id="tspan64"
           sodipodi:role="line"
           y="27"
           x="333 336.00241 342.0072 348.01199 351.0144 356.4144 361.81439 365.4108 371.41559 377.42041 383.4252">the screen.</tspan></text>
</g><path
       inkscape:connector-curvature="0"
       id="path68"
       style="fill:none;stroke:#000000;stroke-width:0.44999999;stroke-linecap:butt;stroke-linejoin:miter;stroke-miterlimit:10;stroke-dasharray:none;stroke-opacity:1"
       d="M 136,81.3602 C 136,71.2203 121.816,63 104.32,63 86.8238,63 72.6398,71.2203 72.6398,81.3602 c 0,10.1394 14.184,18.3597 31.6802,18.3597 17.496,0 31.68,-8.2203 31.68,-18.3597 z" /><path
       inkscape:connector-curvature="0"
       id="path70"
       style="fill:none;stroke:#000000;stroke-width:0.44999999;stroke-linecap:butt;stroke-linejoin:miter;stroke-miterlimit:10;stroke-dasharray:none;stroke-opacity:1"
       d="m 1,49.5 h 49.5 v 63 H 1 Z" /><g
       id="g72"
       transform="scale(0.1)"><g
         clip-path="url(#clipPath78)"
         id="g74"><path
           inkscape:connector-curvature="0"
           id="path80"
           style="fill:none;stroke:#000000;stroke-width:4.5;stroke-linecap:butt;stroke-linejoin:miter;stroke-miterlimit:10;stroke-dasharray:none;stroke-opacity:1"
           d="M 505,810 H 730" /></g></g><path
       inkscape:connector-curvature="0"
       id="path82"
       style="fill:none;stroke:#000000;stroke-width:0.44999999;stroke-linecap:butt;stroke-linejoin:miter;stroke-miterlimit:10;stroke-dasharray:none;stroke-opacity:1"
       d="m 64.1801,82.8 7.2,-1.8 -7.2,-1.8" /><g
       id="g84"
       transform="scale(0.1)"><g
         clip-path="url(#clipPath90)"
         id="g86"><path
           inkscape:connector-curvature="0"
           id="path92"
           style="fill:none;stroke:#000000;stroke-width:4.5;stroke-linecap:butt;stroke-linejoin:miter;stroke-miterlimit:10;stroke-dasharray:none;stroke-opacity:1"
           d="m 2035,810 h 225" /></g></g><path
       inkscape:connector-curvature="0"
       id="path94"
       style="fill:none;stroke:#000000;stroke-width:0.44999999;stroke-linecap:butt;stroke-linejoin:miter;stroke-miterlimit:10;stroke-dasharray:none;stroke-opacity:1"
       d="m 217.18,82.8 7.2,-1.8 -7.2,-1.8" /><g
       id="g96"
       transform="scale(0.1)"><g
         clip-path="url(#clipPath102)"
         id="g98"><path
           inkscape:connector-curvature="0"
           id="path104"
           style="fill:none;stroke:#000000;stroke-width:4.5;stroke-linecap:butt;stroke-linejoin:miter;stroke-miterlimit:10;stroke-dasharray:none;stroke-opacity:1"
           d="m 2845,810 h 225" /></g></g><path
       inkscape:connector-curvature="0"
       id="path106"
       style="fill:none;stroke:#000000;stroke-width:0.44999999;stroke-linecap:butt;stroke-linejoin:miter;stroke-miterlimit:10;stroke-dasharray:none;stroke-opacity:1"
       d="m 298.18,82.8 7.2,-1.8 -7.2,-1.8" /><g
       id="g108"
       transform="scale(0.1)"><g
         clip-path="url(#clipPath114)"
         id="g110"><path
           inkscape:connector-curvature="0"
           id="path116"
           style="fill:none;stroke:#000000;stroke-width:4.5;stroke-linecap:butt;stroke-linejoin:miter;stroke-miterlimit:10;stroke-dasharray:none;stroke-opacity:1"
           d="m 1360,810 h 180" /></g></g><path
       inkscape:connector-curvature="0"
       id="path118"
       style="fill:none;stroke:#000000;stroke-width:0.44999999;stroke-linecap:butt;stroke-linejoin:miter;stroke-miterlimit:10;stroke-dasharray:none;stroke-opacity:1"
       d="m 145.18,82.8 7.2,-1.8 -7.2,-1.8" /><text
       transform="scale(1,-1)"
       style="font-variant:normal;font-weight:normal;font-size:10.80000019px;font-family:Helvetica;-inkscape-font-specification:Helvetica;writing-mode:lr-tb;fill:#000000;fill-opacity:1;fill-rule:nonzero;stroke:none"
       id="text128"
       x="10"
       y="-94.5"><tspan
         x="10 15.4 21.4048 27.409599 31.006001 36.405998"
         y="-94.5"
         sodipodi:role="line"
         id="tspan122">source</tspan><tspan
         x="10 15.4 21.4048 27.409599"
         y="-81"
         sodipodi:role="line"
         id="tspan124">code</tspan><tspan
         x="82 87.400002 93.4048 102.4012 108.406 110.8036 113.2012 119.206"
         y="-76.5"
         sodipodi:role="line"
         id="tspan126">compiler</tspan></text>
</g></svg>